<?xml version="1.0" encoding="UTF-8"?>
<svg xmlns="http://www.w3.org/2000/svg" viewBox="0 0 200 200" width="200" height="200">
  <defs>
    <radialGradient id="bg" cx="50%" cy="45%" r="55%">
      <stop offset="0%" stop-color="#FFE082"/>
      <stop offset="100%" stop-color="#ebcc6e"/>
    </radialGradient>
  </defs>
  <!-- 背景圆 -->
  <circle cx="100" cy="100" r="98" fill="url(#bg)" stroke="#E65100" stroke-width="4"/>
  <!-- 动物耳朵 -->
  <ellipse cx="65" cy="52" rx="18" ry="26" fill="#FFB300"/><ellipse cx="135" cy="52" rx="18" ry="26" fill="#FFB300"/><path d="M55 45 L65 20 L75 45" fill="#E65100"/><path d="M125 45 L135 20 L145 45" fill="#E65100"/>
  <!-- 脸 -->
  <circle cx="100" cy="110" r="60" fill="#FFB300"/>
  <!-- 内耳 -->
  
  <!-- 眼睛 -->
  <circle cx="78" cy="100" r="8" fill="#333"/>
  <circle cx="122" cy="100" r="8" fill="#333"/>
  <circle cx="80" cy="98" r="3" fill="#FFF"/>
  <circle cx="124" cy="98" r="3" fill="#FFF"/>
  <!-- 嘴巴 -->
  <path d="M88 125 Q100 140 112 125" stroke="#333" stroke-width="3" fill="none" stroke-linecap="round"/>
  <!-- 腮红 -->
  <ellipse cx="68" cy="115" rx="10" ry="6" fill="#E65100" opacity="0.3"/>
  <ellipse cx="132" cy="115" rx="10" ry="6" fill="#E65100" opacity="0.3"/>
  <!-- 动物特征 -->
  <ellipse cx="100" cy="85" rx="10" ry="7" fill="#5D4037"/>
</svg>